<svg width="16" height="16" viewBox="0 0 16 16" fill="none" xmlns="http://www.w3.org/2000/svg">
<g id="Group 823">
<path id="Ellipse 31" d="M8 0.5C12.1421 0.499999 15.5 3.85786 15.5 8C15.5 12.1421 12.1421 15.5 8 15.5C3.85786 15.5 0.5 12.1421 0.5 8C0.499999 3.85786 3.85786 0.5 8 0.5Z" stroke="#FF5C00" stroke-linecap="round" stroke-linejoin="round"/>
<path id="Shape" d="M8 15.4287L8 0.571568" stroke="#FF5C00" stroke-linecap="round" stroke-linejoin="round"/>
<path id="Shape_2" d="M10.4996 15C10.4996 15 12.5716 12.643 12.5716 8.00014C12.5716 3.35728 10.4996 1 10.4996 1" stroke="#FF5C00" stroke-linecap="round" stroke-linejoin="round"/>
<path id="Shape_3" d="M5.50037 1C5.50037 1 3.42837 3.357 3.42837 7.99986C3.42837 12.6427 5.50037 15 5.50037 15" stroke="#FF5C00" stroke-linecap="round" stroke-linejoin="round"/>
<path id="Line 40" d="M15.4283 8L0.499634 8" stroke="#FF5C00" stroke-linecap="round" stroke-linejoin="round"/>
<path id="Line 44" d="M1.5 5C1.5 5 3.5 5 8 5C12.5 5 14.5 5 14.5 5" stroke="#FF5C00" stroke-linecap="round" stroke-linejoin="round"/>
<path id="Line 45" d="M1.5 11C1.5 11 3.5 11 8 11C12.5 11 14.5 11 14.5 11" stroke="#FF5C00" stroke-linecap="round" stroke-linejoin="round"/>
</g>
</svg>
